<svg width="56" height="56" viewBox="0 0 56 56" fill="none" xmlns="http://www.w3.org/2000/svg" color="#ffffffff" style="width: 1.3em; height: 1.3em;"><path fill-rule="evenodd" clip-rule="evenodd" d="M37.5805 0H18.4195C12.0146 0 9.69208 0.666878 7.35056 1.91914C5.00904 3.1714 3.1714 5.00904 1.91914 7.35056C0.666879 9.69208 0 12.0146 0 18.4195V37.5805C0 43.9854 0.666879 46.3079 1.91914 48.6494C3.1714 50.991 5.00904 52.8286 7.35056 54.0809C9.69208 55.3331 12.0146 56 18.4195 56H37.5805C43.9854 56 46.3079 55.3331 48.6495 54.0809C50.991 52.8286 52.8286 50.991 54.0809 48.6494C55.3331 46.3079 56 43.9854 56 37.5805V18.4195C56 12.0146 55.3331 9.69208 54.0809 7.35056C52.8286 5.00904 50.991 3.1714 48.6495 1.91914C46.3079 0.666878 43.9854 0 37.5805 0ZM13.2212 28.4946C13.5552 28.8198 13.9858 28.9824 14.5132 28.9824C15.0405 28.9824 15.4668 28.8198 15.792 28.4946C16.1172 28.1606 16.2798 27.73 16.2798 27.2026V26.1743C16.2798 25.0142 16.6401 24.1001 17.3608 23.4321C18.0903 22.7554 19.0791 22.417 20.3271 22.417H26.5103V25.3701C26.5103 25.7744 26.6245 26.0952 26.853 26.3325C27.0903 26.561 27.4111 26.6753 27.8154 26.6753C28 26.6753 28.1714 26.6445 28.3296 26.583C28.4878 26.5215 28.6284 26.438 28.7515 26.3325L34.2622 21.6919C34.5698 21.437 34.7236 21.1294 34.7236 20.769C34.7236 20.3999 34.5698 20.0879 34.2622 19.833L28.7515 15.1924C28.6284 15.0869 28.4878 15.0034 28.3296 14.9419C28.1714 14.8804 28 14.8496 27.8154 14.8496C27.4111 14.8496 27.0903 14.9683 26.853 15.2056C26.6245 15.4341 26.5103 15.7549 26.5103 16.168V18.9629H20.5249C18.9165 18.9629 17.5322 19.2354 16.3721 19.7803C15.2119 20.3164 14.3154 21.0898 13.6826 22.1006C13.0498 23.1113 12.7334 24.3198 12.7334 25.7261V27.2026C12.7334 27.73 12.896 28.1606 13.2212 28.4946ZM42.7393 27.6509C42.4141 27.3257 41.9878 27.1631 41.4604 27.1631C40.9331 27.1631 40.5068 27.3257 40.1816 27.6509C39.8564 27.9761 39.6938 28.4067 39.6938 28.9429V29.9712C39.6938 31.1313 39.3291 32.0454 38.5996 32.7134C37.8789 33.3813 36.8945 33.7153 35.6465 33.7153H25.6138V30.7754C25.6138 30.3623 25.4995 30.0415 25.271 29.813C25.0425 29.5757 24.7261 29.457 24.3218 29.457C24.1284 29.457 23.9526 29.4878 23.7944 29.5493C23.6362 29.6108 23.4956 29.6943 23.3726 29.7998L17.8618 34.4404C17.563 34.7041 17.4136 35.0161 17.4136 35.3765C17.4136 35.7368 17.563 36.0444 17.8618 36.2993L23.3726 40.9399C23.4956 41.0454 23.6362 41.1289 23.7944 41.1904C23.9526 41.252 24.1284 41.2827 24.3218 41.2827C24.7261 41.2827 25.0425 41.1641 25.271 40.9268C25.4995 40.6982 25.6138 40.3818 25.6138 39.9775V37.1826H35.4487C37.0483 37.1826 38.4282 36.9146 39.5884 36.3784C40.7573 35.8335 41.6582 35.0557 42.291 34.0449C42.9238 33.0254 43.2402 31.8169 43.2402 30.4194V28.9429C43.2402 28.4067 43.0732 27.9761 42.7393 27.6509ZM40.2871 24.1968C40.6035 24.4868 41.021 24.6318 41.5396 24.6318C42.0669 24.6318 42.4844 24.4868 42.792 24.1968C43.1084 23.9067 43.2666 23.4629 43.2666 22.8652V16.603C43.2666 16.0142 43.0776 15.5396 42.6997 15.1792C42.3306 14.8188 41.856 14.6387 41.2759 14.6387C40.8188 14.6387 40.4189 14.709 40.0762 14.8496C39.7422 14.9902 39.3994 15.188 39.0479 15.4429L37.2812 16.7612C37.0176 16.9458 36.8374 17.1216 36.7407 17.2886C36.644 17.4556 36.5957 17.6533 36.5957 17.8818C36.5957 18.207 36.7012 18.4707 36.9121 18.6729C37.123 18.875 37.3911 18.9761 37.7163 18.9761C38.0151 18.9761 38.2832 18.8838 38.5205 18.6992L39.707 17.7632H39.8125V22.8652C39.8125 23.4629 39.9707 23.9067 40.2871 24.1968Z" fill="white"></path></svg>