<svg width="32" height="40" viewBox="0 0 32 40" fill="currentColor" xmlns="http://www.w3.org/2000/svg" color="#FFFFFF"><path d="M14.9042 27.1802C14.4202 27.1802 14.0473 26.9897 13.595 26.5612L10.3815 23.5461C10.3339 23.5065 10.2863 23.4906 10.2228 23.4906H8.01703C6.70778 23.4906 5.99365 22.7527 5.99365 21.38V18.4442C5.99365 17.0715 6.70778 16.3257 8.01703 16.3257H10.2307C10.2863 16.3257 10.3418 16.3019 10.3815 16.2622L13.595 13.2709C14.079 12.8107 14.4361 12.6282 14.8883 12.6282C15.6104 12.6282 16.142 13.1915 16.142 13.8977V25.9344C16.142 26.6406 15.6104 27.1802 14.9042 27.1802Z" class="speaker-bounce-1"></path></svg>