<svg width="56" height="56" viewBox="0 0 56 56" fill="none" xmlns="http://www.w3.org/2000/svg" color="#ffffffff" style="width: 1.3em; height: 1.3em;"><path d="M10.624 36.3125C10.624 35.75 10.8218 35.2754 11.2173 34.8887C11.6216 34.4932 12.1094 34.2954 12.6807 34.2954H15.4756C16.3896 34.2954 17.1455 34.1372 17.7432 33.8208C18.3496 33.5044 18.9341 32.9946 19.4966 32.2915L27.3936 22.3379C28.3955 21.0811 29.4282 20.2285 30.4917 19.7803C31.5552 19.332 32.79 19.1079 34.1963 19.1079H36.4243V16.1548C36.4243 15.6714 36.5605 15.2935 36.833 15.021C37.1055 14.7397 37.479 14.5991 37.9536 14.5991C38.1821 14.5991 38.3843 14.6343 38.5601 14.7046C38.7446 14.7749 38.9072 14.8672 39.0479 14.9814L44.8223 19.8857C45.1826 20.1846 45.3628 20.5493 45.3628 20.98C45.3628 21.4106 45.1826 21.7754 44.8223 22.0742L39.0479 26.9917C38.9072 27.106 38.7446 27.2026 38.5601 27.2817C38.3843 27.3521 38.1821 27.3872 37.9536 27.3872C37.479 27.3872 37.1055 27.2466 36.833 26.9653C36.5605 26.6841 36.4243 26.3018 36.4243 25.8184V23.1421H33.9194C33.3218 23.1421 32.8076 23.2036 32.377 23.3267C31.9551 23.4497 31.564 23.6562 31.2036 23.9463C30.8521 24.2275 30.4829 24.6143 30.0962 25.1064L21.606 35.7061C20.8853 36.6113 20.0986 37.2749 19.2461 37.6968C18.3936 38.1099 17.3389 38.3164 16.082 38.3164H12.6807C12.1094 38.3164 11.6216 38.123 11.2173 37.7363C10.8218 37.3496 10.624 36.875 10.624 36.3125ZM10.624 21.125C10.624 20.5625 10.8218 20.0879 11.2173 19.7012C11.6216 19.3057 12.1094 19.1079 12.6807 19.1079H15.7261C16.9829 19.1079 18.0947 19.3188 19.0615 19.7407C20.0371 20.1538 20.8853 20.8174 21.606 21.7314L30.0435 32.2783C30.5972 32.9727 31.1992 33.4824 31.8496 33.8076C32.5 34.1328 33.291 34.2954 34.2227 34.2954H36.4243V31.5664C36.4243 31.083 36.5605 30.7007 36.833 30.4194C37.1055 30.1382 37.479 29.9976 37.9536 29.9976C38.1821 29.9976 38.3843 30.0371 38.5601 30.1162C38.7446 30.1865 38.9072 30.2832 39.0479 30.4062L44.8223 35.2974C45.1826 35.5962 45.3628 35.9609 45.3628 36.3916C45.3628 36.8223 45.1826 37.187 44.8223 37.4858L39.0479 42.3901C38.9072 42.5132 38.7446 42.6099 38.5601 42.6802C38.3843 42.7593 38.1821 42.7988 37.9536 42.7988C37.479 42.7988 37.1055 42.6582 36.833 42.377C36.5605 42.0957 36.4243 41.7134 36.4243 41.23V38.3164H34.1699C32.9043 38.3164 31.7222 38.1011 30.6235 37.6704C29.5249 37.231 28.5625 36.4927 27.7363 35.4556L19.4966 25.146C18.9341 24.4429 18.2925 23.9331 17.5718 23.6167C16.8599 23.3003 16.0381 23.1421 15.1064 23.1421H12.6807C12.1094 23.1421 11.6216 22.9443 11.2173 22.5488C10.8218 22.1533 10.624 21.6787 10.624 21.125Z" fill="white"></path></svg>