<svg width="56" height="56" viewBox="0 0 56 56" fill="none" xmlns="http://www.w3.org/2000/svg" color="#ffffffff" style="width: 1.3em; height: 1.3em;"><path fill-rule="evenodd" clip-rule="evenodd" d="M37.5805 0H18.4195C12.0146 0 9.69208 0.666878 7.35056 1.91914C5.00904 3.1714 3.1714 5.00904 1.91914 7.35056C0.666879 9.69208 0 12.0146 0 18.4195V37.5805C0 43.9854 0.666879 46.3079 1.91914 48.6494C3.1714 50.991 5.00904 52.8286 7.35056 54.0809C9.69208 55.3331 12.0146 56 18.4195 56H37.5805C43.9854 56 46.3079 55.3331 48.6495 54.0809C50.991 52.8286 52.8286 50.991 54.0809 48.6494C55.3331 46.3079 56 43.9854 56 37.5805V18.4195C56 12.0146 55.3331 9.69208 54.0809 7.35056C52.8286 5.00904 50.991 3.1714 48.6495 1.91914C46.3079 0.666878 43.9854 0 37.5805 0ZM11.2173 34.8887C10.8218 35.2754 10.624 35.75 10.624 36.3125C10.624 36.875 10.8218 37.3496 11.2173 37.7363C11.6216 38.123 12.1094 38.3164 12.6807 38.3164H16.082C17.3389 38.3164 18.3936 38.1099 19.2461 37.6968C20.0986 37.2749 20.8853 36.6113 21.606 35.7061L24.7747 31.75L27.7363 35.4556C28.5625 36.4927 29.5249 37.231 30.6235 37.6704C31.7222 38.1011 32.9043 38.3164 34.1699 38.3164H36.4243V41.23C36.4243 41.7134 36.5605 42.0957 36.833 42.377C37.1055 42.6582 37.479 42.7988 37.9536 42.7988C38.1821 42.7988 38.3843 42.7593 38.5601 42.6802C38.7446 42.6099 38.9072 42.5132 39.0479 42.3901L44.8223 37.4858C45.1826 37.187 45.3628 36.8223 45.3628 36.3916C45.3628 35.9609 45.1826 35.5962 44.8223 35.2974L39.0479 30.4062C38.9072 30.2832 38.7446 30.1865 38.5601 30.1162C38.3843 30.0371 38.1821 29.9976 37.9536 29.9976C37.479 29.9976 37.1055 30.1382 36.833 30.4194C36.5605 30.7007 36.4243 31.083 36.4243 31.5664V34.2954H34.2227C33.291 34.2954 32.5 34.1328 31.8496 33.8076C31.1992 33.4824 30.5972 32.9727 30.0435 32.2783L27.1993 28.7231L30.0962 25.1064C30.4829 24.6143 30.8521 24.2275 31.2036 23.9463C31.564 23.6562 31.9551 23.4497 32.377 23.3267C32.8076 23.2036 33.3218 23.1421 33.9194 23.1421H36.4243V25.8184C36.4243 26.3018 36.5605 26.6841 36.833 26.9653C37.1055 27.2466 37.479 27.3872 37.9536 27.3872C38.1821 27.3872 38.3843 27.3521 38.5601 27.2817C38.7446 27.2026 38.9072 27.106 39.0479 26.9917L44.8223 22.0742C45.1826 21.7754 45.3628 21.4106 45.3628 20.98C45.3628 20.5493 45.1826 20.1846 44.8223 19.8857L39.0479 14.9814C38.9072 14.8672 38.7446 14.7749 38.5601 14.7046C38.3843 14.6343 38.1821 14.5991 37.9536 14.5991C37.479 14.5991 37.1055 14.7397 36.833 15.021C36.5605 15.2935 36.4243 15.6714 36.4243 16.1548V19.1079H34.1963C32.79 19.1079 31.5552 19.332 30.4917 19.7803C29.4282 20.2285 28.3955 21.0811 27.3936 22.3379L24.7534 25.6657L21.606 21.7314C20.8853 20.8174 20.0371 20.1538 19.0615 19.7407C18.0947 19.3188 16.9829 19.1079 15.7261 19.1079H12.6807C12.1094 19.1079 11.6216 19.3057 11.2173 19.7012C10.8218 20.0879 10.624 20.5625 10.624 21.125C10.624 21.6787 10.8218 22.1533 11.2173 22.5488C11.6216 22.9443 12.1094 23.1421 12.6807 23.1421H15.1064C16.0381 23.1421 16.8599 23.3003 17.5718 23.6167C18.2925 23.9331 18.9341 24.4429 19.4966 25.146L22.3415 28.7056L19.4966 32.2915C18.9341 32.9946 18.3496 33.5044 17.7432 33.8208C17.1455 34.1372 16.3896 34.2954 15.4756 34.2954H12.6807C12.1094 34.2954 11.6216 34.4932 11.2173 34.8887Z" fill="white"></path></svg>