<svg width="56" height="56" viewBox="0 0 56 56" fill="none" xmlns="http://www.w3.org/2000/svg" color="#ffffffff" style="width: 1.3em; height: 1.3em;"><path fill-rule="evenodd" clip-rule="evenodd" d="M37.5805 0H18.4195C12.0146 0 9.69208 0.666878 7.35056 1.91914C5.00904 3.1714 3.1714 5.00904 1.91914 7.35056C0.666879 9.69208 0 12.0146 0 18.4195V37.5805C0 43.9854 0.666879 46.3079 1.91914 48.6494C3.1714 50.991 5.00904 52.8286 7.35056 54.0809C9.69208 55.3331 12.0146 56 18.4195 56H37.5805C43.9854 56 46.3079 55.3331 48.6495 54.0809C50.991 52.8286 52.8286 50.991 54.0809 48.6494C55.3331 46.3079 56 43.9854 56 37.5805V18.4195C56 12.0146 55.3331 9.69208 54.0809 7.35056C52.8286 5.00904 50.991 3.1714 48.6495 1.91914C46.3079 0.666878 43.9854 0 37.5805 0ZM12.7334 28.376C13.1465 28.7891 13.6519 28.9956 14.2495 28.9956C14.8296 28.9956 15.3262 28.7891 15.7393 28.376C16.1523 27.9541 16.3589 27.4531 16.3589 26.873V25.9502C16.3589 24.7812 16.7236 23.8628 17.4531 23.1948C18.1826 22.5269 19.1846 22.1929 20.459 22.1929H30.3599V25.0669C30.3599 25.5415 30.4961 25.9194 30.7686 26.2007C31.041 26.4819 31.4146 26.6226 31.8892 26.6226C32.1177 26.6226 32.3198 26.5874 32.4956 26.5171C32.6714 26.4468 32.8296 26.3501 32.9702 26.2271L38.7578 21.3096C39.1094 21.0107 39.2852 20.6504 39.2852 20.2285C39.2939 19.7979 39.1182 19.4331 38.7578 19.1343L32.9702 14.2168C32.8296 14.1113 32.6714 14.0234 32.4956 13.9531C32.3198 13.874 32.1177 13.8345 31.8892 13.8345C31.4146 13.8345 31.041 13.9751 30.7686 14.2563C30.4961 14.5288 30.3599 14.9111 30.3599 15.4033V18.0532H20.6436C18.877 18.0532 17.3564 18.3477 16.082 18.9365C14.8076 19.5166 13.8276 20.3516 13.1421 21.4414C12.4565 22.5312 12.1138 23.832 12.1138 25.3438V26.873C12.1138 27.4531 12.3203 27.9541 12.7334 28.376ZM43.2402 27.3213C42.8271 26.9082 42.3306 26.7017 41.7505 26.7017C41.1528 26.7017 40.6475 26.9082 40.2344 27.3213C39.8301 27.7344 39.6279 28.2354 39.6279 28.8242V29.7471C39.6279 30.916 39.2632 31.8345 38.5337 32.5024C37.8042 33.1616 36.8022 33.4912 35.5278 33.4912H25.627V30.6172C25.627 30.125 25.4907 29.7427 25.2183 29.4702C24.9458 29.189 24.5723 29.0483 24.0977 29.0483C23.8691 29.0483 23.6626 29.0835 23.478 29.1538C23.3022 29.2241 23.1484 29.3164 23.0166 29.4307L17.2158 34.3481C16.8643 34.6558 16.6885 35.0249 16.6885 35.4556C16.6973 35.8862 16.873 36.2466 17.2158 36.5366L23.0166 41.4409C23.1484 41.5552 23.3022 41.6475 23.478 41.7178C23.6626 41.7969 23.8691 41.8364 24.0977 41.8364C24.5723 41.8364 24.9458 41.6958 25.2183 41.4146C25.4907 41.1333 25.627 40.751 25.627 40.2676V37.644H35.3301C37.1055 37.644 38.6304 37.354 39.9048 36.7739C41.1792 36.1851 42.1592 35.3457 42.8447 34.2559C43.5303 33.166 43.873 31.8652 43.873 30.3535V28.8242C43.873 28.2354 43.6621 27.7344 43.2402 27.3213Z" fill="white"></path></svg>