<svg width="56" height="56" viewBox="0 0 56 56" fill="none" xmlns="http://www.w3.org/2000/svg" color="#ffffffff" style="width: 1.3em; height: 1.3em;"><path d="M14.2495 28.9956C13.6519 28.9956 13.1465 28.7891 12.7334 28.376C12.3203 27.9541 12.1138 27.4531 12.1138 26.873V25.3438C12.1138 23.832 12.4565 22.5312 13.1421 21.4414C13.8276 20.3516 14.8076 19.5166 16.082 18.9365C17.3564 18.3477 18.877 18.0532 20.6436 18.0532H30.3599V15.4033C30.3599 14.9111 30.4961 14.5288 30.7686 14.2563C31.041 13.9751 31.4146 13.8345 31.8892 13.8345C32.1177 13.8345 32.3198 13.874 32.4956 13.9531C32.6714 14.0234 32.8296 14.1113 32.9702 14.2168L38.7578 19.1343C39.1182 19.4331 39.2939 19.7979 39.2852 20.2285C39.2852 20.6504 39.1094 21.0107 38.7578 21.3096L32.9702 26.2271C32.8296 26.3501 32.6714 26.4468 32.4956 26.5171C32.3198 26.5874 32.1177 26.6226 31.8892 26.6226C31.4146 26.6226 31.041 26.4819 30.7686 26.2007C30.4961 25.9194 30.3599 25.5415 30.3599 25.0669V22.1929H20.459C19.1846 22.1929 18.1826 22.5269 17.4531 23.1948C16.7236 23.8628 16.3589 24.7812 16.3589 25.9502V26.873C16.3589 27.4531 16.1523 27.9541 15.7393 28.376C15.3262 28.7891 14.8296 28.9956 14.2495 28.9956ZM41.7505 26.7017C42.3306 26.7017 42.8271 26.9082 43.2402 27.3213C43.6621 27.7344 43.873 28.2354 43.873 28.8242V30.3535C43.873 31.8652 43.5303 33.166 42.8447 34.2559C42.1592 35.3457 41.1792 36.1851 39.9048 36.7739C38.6304 37.354 37.1055 37.644 35.3301 37.644H25.627V40.2676C25.627 40.751 25.4907 41.1333 25.2183 41.4146C24.9458 41.6958 24.5723 41.8364 24.0977 41.8364C23.8691 41.8364 23.6626 41.7969 23.478 41.7178C23.3022 41.6475 23.1484 41.5552 23.0166 41.4409L17.2158 36.5366C16.873 36.2466 16.6973 35.8862 16.6885 35.4556C16.6885 35.0249 16.8643 34.6558 17.2158 34.3481L23.0166 29.4307C23.1484 29.3164 23.3022 29.2241 23.478 29.1538C23.6626 29.0835 23.8691 29.0483 24.0977 29.0483C24.5723 29.0483 24.9458 29.189 25.2183 29.4702C25.4907 29.7427 25.627 30.125 25.627 30.6172V33.4912H35.5278C36.8022 33.4912 37.8042 33.1616 38.5337 32.5024C39.2632 31.8345 39.6279 30.916 39.6279 29.7471V28.8242C39.6279 28.2354 39.8301 27.7344 40.2344 27.3213C40.6475 26.9082 41.1528 26.7017 41.7505 26.7017Z" fill="white"></path><svg width="56" height="56" viewBox="0 0 56 56" fill="none" xmlns="http://www.w3.org/2000/svg" color="#ffffffff" style="width: 1.3em; height: 1.3em;"><path d="M14.2495 28.9956C13.6519 28.9956 13.1465 28.7891 12.7334 28.376C12.3203 27.9541 12.1138 27.4531 12.1138 26.873V25.3438C12.1138 23.832 12.4565 22.5312 13.1421 21.4414C13.8276 20.3516 14.8076 19.5166 16.082 18.9365C17.3564 18.3477 18.877 18.0532 20.6436 18.0532H30.3599V15.4033C30.3599 14.9111 30.4961 14.5288 30.7686 14.2563C31.041 13.9751 31.4146 13.8345 31.8892 13.8345C32.1177 13.8345 32.3198 13.874 32.4956 13.9531C32.6714 14.0234 32.8296 14.1113 32.9702 14.2168L38.7578 19.1343C39.1182 19.4331 39.2939 19.7979 39.2852 20.2285C39.2852 20.6504 39.1094 21.0107 38.7578 21.3096L32.9702 26.2271C32.8296 26.3501 32.6714 26.4468 32.4956 26.5171C32.3198 26.5874 32.1177 26.6226 31.8892 26.6226C31.4146 26.6226 31.041 26.4819 30.7686 26.2007C30.4961 25.9194 30.3599 25.5415 30.3599 25.0669V22.1929H20.459C19.1846 22.1929 18.1826 22.5269 17.4531 23.1948C16.7236 23.8628 16.3589 24.7812 16.3589 25.9502V26.873C16.3589 27.4531 16.1523 27.9541 15.7393 28.376C15.3262 28.7891 14.8296 28.9956 14.2495 28.9956ZM41.7505 26.7017C42.3306 26.7017 42.8271 26.9082 43.2402 27.3213C43.6621 27.7344 43.873 28.2354 43.873 28.8242V30.3535C43.873 31.8652 43.5303 33.166 42.8447 34.2559C42.1592 35.3457 41.1792 36.1851 39.9048 36.7739C38.6304 37.354 37.1055 37.644 35.3301 37.644H25.627V40.2676C25.627 40.751 25.4907 41.1333 25.2183 41.4146C24.9458 41.6958 24.5723 41.8364 24.0977 41.8364C23.8691 41.8364 23.6626 41.7969 23.478 41.7178C23.3022 41.6475 23.1484 41.5552 23.0166 41.4409L17.2158 36.5366C16.873 36.2466 16.6973 35.8862 16.6885 35.4556C16.6885 35.0249 16.8643 34.6558 17.2158 34.3481L23.0166 29.4307C23.1484 29.3164 23.3022 29.2241 23.478 29.1538C23.6626 29.0835 23.8691 29.0483 24.0977 29.0483C24.5723 29.0483 24.9458 29.189 25.2183 29.4702C25.4907 29.7427 25.627 30.125 25.627 30.6172V33.4912H35.5278C36.8022 33.4912 37.8042 33.1616 38.5337 32.5024C39.2632 31.8345 39.6279 30.916 39.6279 29.7471V28.8242C39.6279 28.2354 39.8301 27.7344 40.2344 27.3213C40.6475 26.9082 41.1528 26.7017 41.7505 26.7017Z" fill="white"></path></svg></svg>